<mxfile host="drawio-plugin" modified="2021-04-27T12:00:24.244Z" agent="5.0 (Macintosh; Intel Mac OS X 10_16_0) AppleWebKit/537.36 (KHTML, like Gecko) Chrome/84.0.4147.105 Safari/537.36" etag="zPW4GNQr-D6HAVrRO9c-" version="13.7.9" type="embed" pages="4"><diagram id="R2lEEEUBdFMjLlhIrx00" name="Page-1"><mxGraphModel dx="1384" dy="737" grid="1" gridSize="10" guides="1" tooltips="1" connect="1" arrows="1" fold="1" page="1" pageScale="1" pageWidth="850" pageHeight="1100" math="0" shadow="0" extFonts="Permanent Marker^https://fonts.googleapis.com/css?family=Permanent+Marker"><root><mxCell id="0"/><mxCell id="1" parent="0"/><mxCell id="P_YUvC5BS9WEQk-tJ5x4-27" value="" style="endArrow=ERzeroToMany;startArrow=ERone;endFill=1;startFill=0;" parent="1" source="P_YUvC5BS9WEQk-tJ5x4-33" edge="1"><mxGeometry width="100" height="100" relative="1" as="geometry"><mxPoint x="610" y="955" as="sourcePoint"/><mxPoint x="737" y="357.323340471092" as="targetPoint"/></mxGeometry></mxCell><mxCell id="P_YUvC5BS9WEQk-tJ5x4-28" value="" style="endArrow=ERzeroToMany;startArrow=ERone;endFill=1;startFill=0;exitX=1;exitY=0.5;exitDx=0;exitDy=0;" parent="1" edge="1"><mxGeometry width="100" height="100" relative="1" as="geometry"><mxPoint x="987" y="360" as="sourcePoint"/><mxPoint x="1200" y="360" as="targetPoint"/></mxGeometry></mxCell><mxCell id="P_YUvC5BS9WEQk-tJ5x4-29" value="" style="edgeStyle=entityRelationEdgeStyle;endArrow=ERzeroToMany;startArrow=ERone;endFill=1;startFill=0;" parent="1" source="P_YUvC5BS9WEQk-tJ5x4-40" edge="1"><mxGeometry width="100" height="100" relative="1" as="geometry"><mxPoint x="610" y="1315" as="sourcePoint"/><mxPoint x="590" y="710" as="targetPoint"/></mxGeometry></mxCell><mxCell id="P_YUvC5BS9WEQk-tJ5x4-30" value="" style="endArrow=ERzeroToMany;startArrow=ERone;endFill=1;startFill=0;exitX=0.5;exitY=1;exitDx=0;exitDy=0;entryX=0.5;entryY=0;entryDx=0;entryDy=0;" parent="1" source="P_YUvC5BS9WEQk-tJ5x4-32" target="P_YUvC5BS9WEQk-tJ5x4-39" edge="1"><mxGeometry width="100" height="100" relative="1" as="geometry"><mxPoint x="641.25" y="456.79999999999995" as="sourcePoint"/><mxPoint x="370" y="730" as="targetPoint"/></mxGeometry></mxCell><mxCell id="P_YUvC5BS9WEQk-tJ5x4-31" value="" style="edgeLabel;html=1;align=center;verticalAlign=middle;resizable=0;points=[];" parent="P_YUvC5BS9WEQk-tJ5x4-30" vertex="1" connectable="0"><mxGeometry x="-0.1083" relative="1" as="geometry"><mxPoint as="offset"/></mxGeometry></mxCell><mxCell id="P_YUvC5BS9WEQk-tJ5x4-32" value="Client" style="shape=table;startSize=30;container=1;collapsible=1;childLayout=tableLayout;fixedRows=1;rowLines=0;fontStyle=1;align=center;resizeLast=1;" parent="1" vertex="1"><mxGeometry x="270" y="305" width="250" height="220" as="geometry"/></mxCell><mxCell id="P_YUvC5BS9WEQk-tJ5x4-33" value="" style="shape=partialRectangle;collapsible=0;dropTarget=0;pointerEvents=0;fillColor=none;points=[[0,0.5],[1,0.5]];portConstraint=eastwest;top=0;left=0;right=0;bottom=1;" parent="P_YUvC5BS9WEQk-tJ5x4-32" vertex="1"><mxGeometry y="30" width="250" height="30" as="geometry"/></mxCell><mxCell id="P_YUvC5BS9WEQk-tJ5x4-34" value="PK" style="shape=partialRectangle;overflow=hidden;connectable=0;fillColor=none;top=0;left=0;bottom=0;right=0;fontStyle=1;" parent="P_YUvC5BS9WEQk-tJ5x4-33" vertex="1"><mxGeometry width="30" height="30" as="geometry"/></mxCell><mxCell id="P_YUvC5BS9WEQk-tJ5x4-35" value="client_id int NOT NULL " style="shape=partialRectangle;overflow=hidden;connectable=0;fillColor=none;top=0;left=0;bottom=0;right=0;align=left;spacingLeft=6;fontStyle=5;" parent="P_YUvC5BS9WEQk-tJ5x4-33" vertex="1"><mxGeometry x="30" width="220" height="30" as="geometry"/></mxCell><mxCell id="P_YUvC5BS9WEQk-tJ5x4-36" value="" style="shape=partialRectangle;collapsible=0;dropTarget=0;pointerEvents=0;fillColor=none;points=[[0,0.5],[1,0.5]];portConstraint=eastwest;top=0;left=0;right=0;bottom=0;" parent="P_YUvC5BS9WEQk-tJ5x4-32" vertex="1"><mxGeometry y="60" width="250" height="40" as="geometry"/></mxCell><mxCell id="P_YUvC5BS9WEQk-tJ5x4-37" value="" style="shape=partialRectangle;overflow=hidden;connectable=0;fillColor=none;top=0;left=0;bottom=0;right=0;" parent="P_YUvC5BS9WEQk-tJ5x4-36" vertex="1"><mxGeometry width="30" height="40" as="geometry"/></mxCell><mxCell id="P_YUvC5BS9WEQk-tJ5x4-38" value="client_name char(50) NOT NULL&#10;clientId(int)&#10;" style="shape=partialRectangle;overflow=hidden;connectable=0;fillColor=none;top=0;left=0;bottom=0;right=0;align=left;spacingLeft=6;" parent="P_YUvC5BS9WEQk-tJ5x4-36" vertex="1"><mxGeometry x="30" width="220" height="40" as="geometry"/></mxCell><mxCell id="P_YUvC5BS9WEQk-tJ5x4-39" value="Booking/Reservation" style="shape=table;startSize=40;container=1;collapsible=1;childLayout=tableLayout;fixedRows=1;rowLines=0;fontStyle=1;align=center;resizeLast=1;" parent="1" vertex="1"><mxGeometry x="270" y="595" width="250" height="190" as="geometry"/></mxCell><mxCell id="P_YUvC5BS9WEQk-tJ5x4-40" value="" style="shape=partialRectangle;collapsible=0;dropTarget=0;pointerEvents=0;fillColor=none;points=[[0,0.5],[1,0.5]];portConstraint=eastwest;top=0;left=0;right=0;bottom=1;" parent="P_YUvC5BS9WEQk-tJ5x4-39" vertex="1"><mxGeometry y="40" width="250" height="30" as="geometry"/></mxCell><mxCell id="P_YUvC5BS9WEQk-tJ5x4-41" value="PK" style="shape=partialRectangle;overflow=hidden;connectable=0;fillColor=none;top=0;left=0;bottom=0;right=0;fontStyle=1;" parent="P_YUvC5BS9WEQk-tJ5x4-40" vertex="1"><mxGeometry width="30" height="30" as="geometry"/></mxCell><mxCell id="P_YUvC5BS9WEQk-tJ5x4-42" value="Booking_id int NOT NULL " style="shape=partialRectangle;overflow=hidden;connectable=0;fillColor=none;top=0;left=0;bottom=0;right=0;align=left;spacingLeft=6;fontStyle=5;" parent="P_YUvC5BS9WEQk-tJ5x4-40" vertex="1"><mxGeometry x="30" width="220" height="30" as="geometry"/></mxCell><mxCell id="P_YUvC5BS9WEQk-tJ5x4-43" value="" style="shape=partialRectangle;collapsible=0;dropTarget=0;pointerEvents=0;fillColor=none;points=[[0,0.5],[1,0.5]];portConstraint=eastwest;top=0;left=0;right=0;bottom=0;" parent="P_YUvC5BS9WEQk-tJ5x4-39" vertex="1"><mxGeometry y="70" width="250" height="60" as="geometry"/></mxCell><mxCell id="P_YUvC5BS9WEQk-tJ5x4-44" value="FK" style="shape=partialRectangle;overflow=hidden;connectable=0;fillColor=none;top=0;left=0;bottom=0;right=0;" parent="P_YUvC5BS9WEQk-tJ5x4-43" vertex="1"><mxGeometry width="30" height="60" as="geometry"/></mxCell><mxCell id="P_YUvC5BS9WEQk-tJ5x4-45" value="YearNo (int)&#10;WeekNo&#10;clientId(int)&#10;&#10;bookingDate Date " style="shape=partialRectangle;overflow=hidden;connectable=0;fillColor=none;top=0;left=0;bottom=0;right=0;align=left;spacingLeft=6;" parent="P_YUvC5BS9WEQk-tJ5x4-43" vertex="1"><mxGeometry x="30" width="220" height="60" as="geometry"/></mxCell><mxCell id="P_YUvC5BS9WEQk-tJ5x4-46" value="address nChar NOT Null&#10;emailaddress (nChar) not null&#10;LicenceNo.(int)" style="shape=partialRectangle;overflow=hidden;connectable=0;fillColor=none;top=0;left=0;bottom=0;right=0;align=left;spacingLeft=6;" parent="1" vertex="1"><mxGeometry x="301" y="401" width="220" height="44" as="geometry"/></mxCell><mxCell id="P_YUvC5BS9WEQk-tJ5x4-47" value="Invoice" style="shape=table;startSize=30;container=1;collapsible=1;childLayout=tableLayout;fixedRows=1;rowLines=0;fontStyle=1;align=center;resizeLast=1;" parent="1" vertex="1"><mxGeometry x="740" y="295" width="250" height="130" as="geometry"/></mxCell><mxCell id="P_YUvC5BS9WEQk-tJ5x4-48" value="" style="shape=partialRectangle;collapsible=0;dropTarget=0;pointerEvents=0;fillColor=none;points=[[0,0.5],[1,0.5]];portConstraint=eastwest;top=0;left=0;right=0;bottom=1;" parent="P_YUvC5BS9WEQk-tJ5x4-47" vertex="1"><mxGeometry y="30" width="250" height="30" as="geometry"/></mxCell><mxCell id="P_YUvC5BS9WEQk-tJ5x4-49" value="PK" style="shape=partialRectangle;overflow=hidden;connectable=0;fillColor=none;top=0;left=0;bottom=0;right=0;fontStyle=1;" parent="P_YUvC5BS9WEQk-tJ5x4-48" vertex="1"><mxGeometry width="30" height="30" as="geometry"/></mxCell><mxCell id="P_YUvC5BS9WEQk-tJ5x4-50" value="invoice_id int NOT NULL " style="shape=partialRectangle;overflow=hidden;connectable=0;fillColor=none;top=0;left=0;bottom=0;right=0;align=left;spacingLeft=6;fontStyle=5;" parent="P_YUvC5BS9WEQk-tJ5x4-48" vertex="1"><mxGeometry x="30" width="220" height="30" as="geometry"/></mxCell><mxCell id="P_YUvC5BS9WEQk-tJ5x4-51" value="" style="shape=partialRectangle;collapsible=0;dropTarget=0;pointerEvents=0;fillColor=none;points=[[0,0.5],[1,0.5]];portConstraint=eastwest;top=0;left=0;right=0;bottom=0;" parent="P_YUvC5BS9WEQk-tJ5x4-47" vertex="1"><mxGeometry y="60" width="250" height="30" as="geometry"/></mxCell><mxCell id="P_YUvC5BS9WEQk-tJ5x4-52" value="FK1" style="shape=partialRectangle;overflow=hidden;connectable=0;fillColor=none;top=0;left=0;bottom=0;right=0;" parent="P_YUvC5BS9WEQk-tJ5x4-51" vertex="1"><mxGeometry width="30" height="30" as="geometry"/></mxCell><mxCell id="P_YUvC5BS9WEQk-tJ5x4-53" value="payment_id int NOT NULL" style="shape=partialRectangle;overflow=hidden;connectable=0;fillColor=none;top=0;left=0;bottom=0;right=0;align=left;spacingLeft=6;" parent="P_YUvC5BS9WEQk-tJ5x4-51" vertex="1"><mxGeometry x="30" width="220" height="30" as="geometry"/></mxCell><mxCell id="P_YUvC5BS9WEQk-tJ5x4-54" value="" style="shape=partialRectangle;collapsible=0;dropTarget=0;pointerEvents=0;fillColor=none;points=[[0,0.5],[1,0.5]];portConstraint=eastwest;top=0;left=0;right=0;bottom=0;" parent="P_YUvC5BS9WEQk-tJ5x4-47" vertex="1"><mxGeometry y="90" width="250" height="30" as="geometry"/></mxCell><mxCell id="P_YUvC5BS9WEQk-tJ5x4-55" value="" style="shape=partialRectangle;overflow=hidden;connectable=0;fillColor=none;top=0;left=0;bottom=0;right=0;" parent="P_YUvC5BS9WEQk-tJ5x4-54" vertex="1"><mxGeometry width="30" height="30" as="geometry"/></mxCell><mxCell id="P_YUvC5BS9WEQk-tJ5x4-56" value="Invoice_due_date Date &#10;AmountDue (int)" style="shape=partialRectangle;overflow=hidden;connectable=0;fillColor=none;top=0;left=0;bottom=0;right=0;align=left;spacingLeft=6;" parent="P_YUvC5BS9WEQk-tJ5x4-54" vertex="1"><mxGeometry x="30" width="220" height="30" as="geometry"/></mxCell><mxCell id="P_YUvC5BS9WEQk-tJ5x4-57" value="reminder Date NOT Null" style="text;html=1;align=center;verticalAlign=middle;resizable=0;points=[];autosize=1;" parent="1" vertex="1"><mxGeometry x="1234" y="360" width="140" height="20" as="geometry"/></mxCell><mxCell id="P_YUvC5BS9WEQk-tJ5x4-58" value="payment_type varChar NOT Nul&lt;br&gt;&lt;br&gt;" style="text;html=1;align=center;verticalAlign=middle;resizable=0;points=[];autosize=1;" parent="1" vertex="1"><mxGeometry x="1234" y="377" width="190" height="30" as="geometry"/></mxCell><mxCell id="P_YUvC5BS9WEQk-tJ5x4-59" value="Payment" style="shape=table;startSize=30;container=1;collapsible=1;childLayout=tableLayout;fixedRows=1;rowLines=0;fontStyle=1;align=center;resizeLast=1;" parent="1" vertex="1"><mxGeometry x="1200" y="250" width="250" height="220" as="geometry"/></mxCell><mxCell id="P_YUvC5BS9WEQk-tJ5x4-60" value="" style="shape=partialRectangle;collapsible=0;dropTarget=0;pointerEvents=0;fillColor=none;points=[[0,0.5],[1,0.5]];portConstraint=eastwest;top=0;left=0;right=0;bottom=1;" parent="P_YUvC5BS9WEQk-tJ5x4-59" vertex="1"><mxGeometry y="30" width="250" height="30" as="geometry"/></mxCell><mxCell id="P_YUvC5BS9WEQk-tJ5x4-61" value="PK" style="shape=partialRectangle;overflow=hidden;connectable=0;fillColor=none;top=0;left=0;bottom=0;right=0;fontStyle=1;" parent="P_YUvC5BS9WEQk-tJ5x4-60" vertex="1"><mxGeometry width="30" height="30" as="geometry"/></mxCell><mxCell id="P_YUvC5BS9WEQk-tJ5x4-62" value="payment_id int NOT NULL " style="shape=partialRectangle;overflow=hidden;connectable=0;fillColor=none;top=0;left=0;bottom=0;right=0;align=left;spacingLeft=6;fontStyle=5;" parent="P_YUvC5BS9WEQk-tJ5x4-60" vertex="1"><mxGeometry x="30" width="220" height="30" as="geometry"/></mxCell><mxCell id="P_YUvC5BS9WEQk-tJ5x4-63" value="" style="shape=partialRectangle;collapsible=0;dropTarget=0;pointerEvents=0;fillColor=none;points=[[0,0.5],[1,0.5]];portConstraint=eastwest;top=0;left=0;right=0;bottom=0;" parent="P_YUvC5BS9WEQk-tJ5x4-59" vertex="1"><mxGeometry y="60" width="250" height="30" as="geometry"/></mxCell><mxCell id="P_YUvC5BS9WEQk-tJ5x4-64" value="FK1" style="shape=partialRectangle;overflow=hidden;connectable=0;fillColor=none;top=0;left=0;bottom=0;right=0;" parent="P_YUvC5BS9WEQk-tJ5x4-63" vertex="1"><mxGeometry width="30" height="30" as="geometry"/></mxCell><mxCell id="P_YUvC5BS9WEQk-tJ5x4-65" value="client_id int NOT NULL" style="shape=partialRectangle;overflow=hidden;connectable=0;fillColor=none;top=0;left=0;bottom=0;right=0;align=left;spacingLeft=6;" parent="P_YUvC5BS9WEQk-tJ5x4-63" vertex="1"><mxGeometry x="30" width="220" height="30" as="geometry"/></mxCell><mxCell id="P_YUvC5BS9WEQk-tJ5x4-66" value="" style="shape=partialRectangle;collapsible=0;dropTarget=0;pointerEvents=0;fillColor=none;points=[[0,0.5],[1,0.5]];portConstraint=eastwest;top=0;left=0;right=0;bottom=0;" parent="P_YUvC5BS9WEQk-tJ5x4-59" vertex="1"><mxGeometry y="90" width="250" height="30" as="geometry"/></mxCell><mxCell id="P_YUvC5BS9WEQk-tJ5x4-67" value="" style="shape=partialRectangle;overflow=hidden;connectable=0;fillColor=none;top=0;left=0;bottom=0;right=0;" parent="P_YUvC5BS9WEQk-tJ5x4-66" vertex="1"><mxGeometry width="30" height="30" as="geometry"/></mxCell><mxCell id="P_YUvC5BS9WEQk-tJ5x4-68" value="payment_due_date Date NOT NULL" style="shape=partialRectangle;overflow=hidden;connectable=0;fillColor=none;top=0;left=0;bottom=0;right=0;align=left;spacingLeft=6;" parent="P_YUvC5BS9WEQk-tJ5x4-66" vertex="1"><mxGeometry x="30" width="220" height="30" as="geometry"/></mxCell><mxCell id="P_YUvC5BS9WEQk-tJ5x4-69" value="Bank" style="shape=table;startSize=50;container=1;collapsible=1;childLayout=tableLayout;fixedRows=1;rowLines=0;fontStyle=1;align=center;resizeLast=1;" parent="1" vertex="1"><mxGeometry x="1360" y="760" width="250" height="210" as="geometry"/></mxCell><mxCell id="P_YUvC5BS9WEQk-tJ5x4-70" value="" style="shape=partialRectangle;collapsible=0;dropTarget=0;pointerEvents=0;fillColor=none;points=[[0,0.5],[1,0.5]];portConstraint=eastwest;top=0;left=0;right=0;bottom=1;" parent="P_YUvC5BS9WEQk-tJ5x4-69" vertex="1"><mxGeometry y="50" width="250" height="30" as="geometry"/></mxCell><mxCell id="P_YUvC5BS9WEQk-tJ5x4-71" value="PK" style="shape=partialRectangle;overflow=hidden;connectable=0;fillColor=none;top=0;left=0;bottom=0;right=0;fontStyle=1;" parent="P_YUvC5BS9WEQk-tJ5x4-70" vertex="1"><mxGeometry width="30" height="30" as="geometry"/></mxCell><mxCell id="P_YUvC5BS9WEQk-tJ5x4-72" value="Bank_id int NOT NULL " style="shape=partialRectangle;overflow=hidden;connectable=0;fillColor=none;top=0;left=0;bottom=0;right=0;align=left;spacingLeft=6;fontStyle=5;" parent="P_YUvC5BS9WEQk-tJ5x4-70" vertex="1"><mxGeometry x="30" width="220" height="30" as="geometry"/></mxCell><mxCell id="P_YUvC5BS9WEQk-tJ5x4-73" value="" style="shape=partialRectangle;collapsible=0;dropTarget=0;pointerEvents=0;fillColor=none;points=[[0,0.5],[1,0.5]];portConstraint=eastwest;top=0;left=0;right=0;bottom=0;" parent="P_YUvC5BS9WEQk-tJ5x4-69" vertex="1"><mxGeometry y="80" width="250" height="80" as="geometry"/></mxCell><mxCell id="P_YUvC5BS9WEQk-tJ5x4-74" value="" style="shape=partialRectangle;overflow=hidden;connectable=0;fillColor=none;top=0;left=0;bottom=0;right=0;" parent="P_YUvC5BS9WEQk-tJ5x4-73" vertex="1"><mxGeometry width="30" height="80" as="geometry"/></mxCell><mxCell id="P_YUvC5BS9WEQk-tJ5x4-75" value="bankName&#10;clientId(int)&#10;paymentId&#10;insurance&#10;" style="shape=partialRectangle;overflow=hidden;connectable=0;fillColor=none;top=0;left=0;bottom=0;right=0;align=left;spacingLeft=6;" parent="P_YUvC5BS9WEQk-tJ5x4-73" vertex="1"><mxGeometry x="30" width="220" height="80" as="geometry"/></mxCell><mxCell id="P_YUvC5BS9WEQk-tJ5x4-76" style="edgeStyle=orthogonalEdgeStyle;rounded=0;orthogonalLoop=1;jettySize=auto;html=1;startArrow=classic;startFill=1;endArrow=none;endFill=0;" parent="1" source="P_YUvC5BS9WEQk-tJ5x4-77" target="P_YUvC5BS9WEQk-tJ5x4-85" edge="1"><mxGeometry relative="1" as="geometry"><Array as="points"><mxPoint x="670" y="940"/></Array></mxGeometry></mxCell><mxCell id="P_YUvC5BS9WEQk-tJ5x4-105" style="edgeStyle=none;rounded=0;orthogonalLoop=1;jettySize=auto;html=1;entryX=0;entryY=0.322;entryDx=0;entryDy=0;entryPerimeter=0;startArrow=classic;startFill=1;endArrow=none;endFill=0;" parent="1" source="P_YUvC5BS9WEQk-tJ5x4-77" target="P_YUvC5BS9WEQk-tJ5x4-102" edge="1"><mxGeometry relative="1" as="geometry"><Array as="points"><mxPoint x="715" y="920"/></Array></mxGeometry></mxCell><mxCell id="P_YUvC5BS9WEQk-tJ5x4-77" value="Camper" style="shape=table;startSize=50;container=1;collapsible=1;childLayout=tableLayout;fixedRows=1;rowLines=0;fontStyle=1;align=center;resizeLast=1;" parent="1" vertex="1"><mxGeometry x="590" y="615" width="250" height="200" as="geometry"/></mxCell><mxCell id="P_YUvC5BS9WEQk-tJ5x4-78" value="" style="shape=partialRectangle;collapsible=0;dropTarget=0;pointerEvents=0;fillColor=none;points=[[0,0.5],[1,0.5]];portConstraint=eastwest;top=0;left=0;right=0;bottom=1;" parent="P_YUvC5BS9WEQk-tJ5x4-77" vertex="1"><mxGeometry y="50" width="250" height="30" as="geometry"/></mxCell><mxCell id="P_YUvC5BS9WEQk-tJ5x4-79" value="PK" style="shape=partialRectangle;overflow=hidden;connectable=0;fillColor=none;top=0;left=0;bottom=0;right=0;fontStyle=1;" parent="P_YUvC5BS9WEQk-tJ5x4-78" vertex="1"><mxGeometry width="30" height="30" as="geometry"/></mxCell><mxCell id="P_YUvC5BS9WEQk-tJ5x4-80" value="camper_id int NOT NULL " style="shape=partialRectangle;overflow=hidden;connectable=0;fillColor=none;top=0;left=0;bottom=0;right=0;align=left;spacingLeft=6;fontStyle=5;" parent="P_YUvC5BS9WEQk-tJ5x4-78" vertex="1"><mxGeometry x="30" width="220" height="30" as="geometry"/></mxCell><mxCell id="P_YUvC5BS9WEQk-tJ5x4-81" value="" style="shape=partialRectangle;collapsible=0;dropTarget=0;pointerEvents=0;fillColor=none;points=[[0,0.5],[1,0.5]];portConstraint=eastwest;top=0;left=0;right=0;bottom=0;" parent="P_YUvC5BS9WEQk-tJ5x4-77" vertex="1"><mxGeometry y="80" width="250" height="70" as="geometry"/></mxCell><mxCell id="P_YUvC5BS9WEQk-tJ5x4-82" value="&#10;FK&#10;FK" style="shape=partialRectangle;overflow=hidden;connectable=0;fillColor=none;top=0;left=0;bottom=0;right=0;" parent="P_YUvC5BS9WEQk-tJ5x4-81" vertex="1"><mxGeometry width="30" height="70" as="geometry"/></mxCell><mxCell id="P_YUvC5BS9WEQk-tJ5x4-83" value="Camper_regest.Year (int)&#10;CamperType (verChar)&#10;CategoryID ( int) " style="shape=partialRectangle;overflow=hidden;connectable=0;fillColor=none;top=0;left=0;bottom=0;right=0;align=left;spacingLeft=6;" parent="P_YUvC5BS9WEQk-tJ5x4-81" vertex="1"><mxGeometry x="30" width="220" height="70" as="geometry"/></mxCell><mxCell id="P_YUvC5BS9WEQk-tJ5x4-84" value="PriceCategory" style="shape=table;startSize=50;container=1;collapsible=1;childLayout=tableLayout;fixedRows=1;rowLines=0;fontStyle=1;align=center;resizeLast=1;" parent="1" vertex="1"><mxGeometry x="320" y="875" width="250" height="220" as="geometry"/></mxCell><mxCell id="P_YUvC5BS9WEQk-tJ5x4-85" value="" style="shape=partialRectangle;collapsible=0;dropTarget=0;pointerEvents=0;fillColor=none;points=[[0,0.5],[1,0.5]];portConstraint=eastwest;top=0;left=0;right=0;bottom=1;" parent="P_YUvC5BS9WEQk-tJ5x4-84" vertex="1"><mxGeometry y="50" width="250" height="30" as="geometry"/></mxCell><mxCell id="P_YUvC5BS9WEQk-tJ5x4-86" value="PK" style="shape=partialRectangle;overflow=hidden;connectable=0;fillColor=none;top=0;left=0;bottom=0;right=0;fontStyle=1;" parent="P_YUvC5BS9WEQk-tJ5x4-85" vertex="1"><mxGeometry width="30" height="30" as="geometry"/></mxCell><mxCell id="P_YUvC5BS9WEQk-tJ5x4-87" value="CategoryID int" style="shape=partialRectangle;overflow=hidden;connectable=0;fillColor=none;top=0;left=0;bottom=0;right=0;align=left;spacingLeft=6;fontStyle=5;" parent="P_YUvC5BS9WEQk-tJ5x4-85" vertex="1"><mxGeometry x="30" width="220" height="30" as="geometry"/></mxCell><mxCell id="P_YUvC5BS9WEQk-tJ5x4-88" value="" style="shape=partialRectangle;collapsible=0;dropTarget=0;pointerEvents=0;fillColor=none;points=[[0,0.5],[1,0.5]];portConstraint=eastwest;top=0;left=0;right=0;bottom=0;" parent="P_YUvC5BS9WEQk-tJ5x4-84" vertex="1"><mxGeometry y="80" width="250" height="90" as="geometry"/></mxCell><mxCell id="P_YUvC5BS9WEQk-tJ5x4-89" value="" style="shape=partialRectangle;overflow=hidden;connectable=0;fillColor=none;top=0;left=0;bottom=0;right=0;" parent="P_YUvC5BS9WEQk-tJ5x4-88" vertex="1"><mxGeometry width="30" height="90" as="geometry"/></mxCell><mxCell id="P_YUvC5BS9WEQk-tJ5x4-90" value="&#10;Categorytype varchar&#10;CategoryPrice (Double)&#10;CategorySeasonalPrice (Double)" style="shape=partialRectangle;overflow=hidden;connectable=0;fillColor=none;top=0;left=0;bottom=0;right=0;align=left;spacingLeft=6;" parent="P_YUvC5BS9WEQk-tJ5x4-88" vertex="1"><mxGeometry x="30" width="220" height="90" as="geometry"/></mxCell><mxCell id="P_YUvC5BS9WEQk-tJ5x4-91" value="insurance" style="shape=table;startSize=50;container=1;collapsible=1;childLayout=tableLayout;fixedRows=1;rowLines=0;fontStyle=1;align=center;resizeLast=1;" parent="1" vertex="1"><mxGeometry x="1090" y="950" width="250" height="170" as="geometry"/></mxCell><mxCell id="P_YUvC5BS9WEQk-tJ5x4-92" value="" style="shape=partialRectangle;collapsible=0;dropTarget=0;pointerEvents=0;fillColor=none;points=[[0,0.5],[1,0.5]];portConstraint=eastwest;top=0;left=0;right=0;bottom=1;" parent="P_YUvC5BS9WEQk-tJ5x4-91" vertex="1"><mxGeometry y="50" width="250" height="30" as="geometry"/></mxCell><mxCell id="P_YUvC5BS9WEQk-tJ5x4-93" value="PK" style="shape=partialRectangle;overflow=hidden;connectable=0;fillColor=none;top=0;left=0;bottom=0;right=0;fontStyle=1;" parent="P_YUvC5BS9WEQk-tJ5x4-92" vertex="1"><mxGeometry width="30" height="30" as="geometry"/></mxCell><mxCell id="P_YUvC5BS9WEQk-tJ5x4-94" value="insurance_id int NOT NULL " style="shape=partialRectangle;overflow=hidden;connectable=0;fillColor=none;top=0;left=0;bottom=0;right=0;align=left;spacingLeft=6;fontStyle=5;" parent="P_YUvC5BS9WEQk-tJ5x4-92" vertex="1"><mxGeometry x="30" width="220" height="30" as="geometry"/></mxCell><mxCell id="P_YUvC5BS9WEQk-tJ5x4-95" value="" style="shape=partialRectangle;collapsible=0;dropTarget=0;pointerEvents=0;fillColor=none;points=[[0,0.5],[1,0.5]];portConstraint=eastwest;top=0;left=0;right=0;bottom=0;" parent="P_YUvC5BS9WEQk-tJ5x4-91" vertex="1"><mxGeometry y="80" width="250" height="40" as="geometry"/></mxCell><mxCell id="P_YUvC5BS9WEQk-tJ5x4-96" value="" style="shape=partialRectangle;overflow=hidden;connectable=0;fillColor=none;top=0;left=0;bottom=0;right=0;" parent="P_YUvC5BS9WEQk-tJ5x4-95" vertex="1"><mxGeometry width="30" height="40" as="geometry"/></mxCell><mxCell id="P_YUvC5BS9WEQk-tJ5x4-97" value="insuranceType (varChar) &#10;insuranceCovering" style="shape=partialRectangle;overflow=hidden;connectable=0;fillColor=none;top=0;left=0;bottom=0;right=0;align=left;spacingLeft=6;" parent="P_YUvC5BS9WEQk-tJ5x4-95" vertex="1"><mxGeometry x="30" width="220" height="40" as="geometry"/></mxCell><mxCell id="P_YUvC5BS9WEQk-tJ5x4-98" value="CamperType" style="shape=table;startSize=50;container=1;collapsible=1;childLayout=tableLayout;fixedRows=1;rowLines=0;fontStyle=1;align=center;resizeLast=1;" parent="1" vertex="1"><mxGeometry x="790" y="870" width="250" height="220" as="geometry"/></mxCell><mxCell id="P_YUvC5BS9WEQk-tJ5x4-99" value="" style="shape=partialRectangle;collapsible=0;dropTarget=0;pointerEvents=0;fillColor=none;points=[[0,0.5],[1,0.5]];portConstraint=eastwest;top=0;left=0;right=0;bottom=1;" parent="P_YUvC5BS9WEQk-tJ5x4-98" vertex="1"><mxGeometry y="50" width="250" height="30" as="geometry"/></mxCell><mxCell id="P_YUvC5BS9WEQk-tJ5x4-100" value="PK" style="shape=partialRectangle;overflow=hidden;connectable=0;fillColor=none;top=0;left=0;bottom=0;right=0;fontStyle=1;" parent="P_YUvC5BS9WEQk-tJ5x4-99" vertex="1"><mxGeometry width="30" height="30" as="geometry"/></mxCell><mxCell id="P_YUvC5BS9WEQk-tJ5x4-101" value="camperType_varChar NOT NULL " style="shape=partialRectangle;overflow=hidden;connectable=0;fillColor=none;top=0;left=0;bottom=0;right=0;align=left;spacingLeft=6;fontStyle=5;" parent="P_YUvC5BS9WEQk-tJ5x4-99" vertex="1"><mxGeometry x="30" width="220" height="30" as="geometry"/></mxCell><mxCell id="P_YUvC5BS9WEQk-tJ5x4-102" value="" style="shape=partialRectangle;collapsible=0;dropTarget=0;pointerEvents=0;fillColor=none;points=[[0,0.5],[1,0.5]];portConstraint=eastwest;top=0;left=0;right=0;bottom=0;" parent="P_YUvC5BS9WEQk-tJ5x4-98" vertex="1"><mxGeometry y="80" width="250" height="90" as="geometry"/></mxCell><mxCell id="P_YUvC5BS9WEQk-tJ5x4-103" value="" style="shape=partialRectangle;overflow=hidden;connectable=0;fillColor=none;top=0;left=0;bottom=0;right=0;" parent="P_YUvC5BS9WEQk-tJ5x4-102" vertex="1"><mxGeometry width="30" height="90" as="geometry"/></mxCell><mxCell id="P_YUvC5BS9WEQk-tJ5x4-104" value="KitchenFacilities (varChar)&#10;no.of bed (int)&#10;HeatingFacility (bolean)&#10;SpaceAvailable (int)&#10;" style="shape=partialRectangle;overflow=hidden;connectable=0;fillColor=none;top=0;left=0;bottom=0;right=0;align=left;spacingLeft=6;" parent="P_YUvC5BS9WEQk-tJ5x4-102" vertex="1"><mxGeometry x="30" width="220" height="90" as="geometry"/></mxCell><mxCell id="P_YUvC5BS9WEQk-tJ5x4-106" value="deposit" style="shape=table;startSize=30;container=1;collapsible=1;childLayout=tableLayout;fixedRows=1;rowLines=0;fontStyle=1;align=center;resizeLast=1;" parent="1" vertex="1"><mxGeometry x="860" y="540" width="250" height="190" as="geometry"/></mxCell><mxCell id="P_YUvC5BS9WEQk-tJ5x4-107" value="" style="shape=partialRectangle;collapsible=0;dropTarget=0;pointerEvents=0;fillColor=none;points=[[0,0.5],[1,0.5]];portConstraint=eastwest;top=0;left=0;right=0;bottom=1;" parent="P_YUvC5BS9WEQk-tJ5x4-106" vertex="1"><mxGeometry y="30" width="250" height="30" as="geometry"/></mxCell><mxCell id="P_YUvC5BS9WEQk-tJ5x4-108" value="PK" style="shape=partialRectangle;overflow=hidden;connectable=0;fillColor=none;top=0;left=0;bottom=0;right=0;fontStyle=1;" parent="P_YUvC5BS9WEQk-tJ5x4-107" vertex="1"><mxGeometry width="30" height="30" as="geometry"/></mxCell><mxCell id="P_YUvC5BS9WEQk-tJ5x4-109" value="depositID (int)" style="shape=partialRectangle;overflow=hidden;connectable=0;fillColor=none;top=0;left=0;bottom=0;right=0;align=left;spacingLeft=6;fontStyle=5;" parent="P_YUvC5BS9WEQk-tJ5x4-107" vertex="1"><mxGeometry x="30" width="220" height="30" as="geometry"/></mxCell><mxCell id="P_YUvC5BS9WEQk-tJ5x4-110" value="" style="shape=partialRectangle;collapsible=0;dropTarget=0;pointerEvents=0;fillColor=none;points=[[0,0.5],[1,0.5]];portConstraint=eastwest;top=0;left=0;right=0;bottom=0;" parent="P_YUvC5BS9WEQk-tJ5x4-106" vertex="1"><mxGeometry y="60" width="250" height="90" as="geometry"/></mxCell><mxCell id="P_YUvC5BS9WEQk-tJ5x4-111" value="&#10;FK" style="shape=partialRectangle;overflow=hidden;connectable=0;fillColor=none;top=0;left=0;bottom=0;right=0;" parent="P_YUvC5BS9WEQk-tJ5x4-110" vertex="1"><mxGeometry width="30" height="90" as="geometry"/></mxCell><mxCell id="P_YUvC5BS9WEQk-tJ5x4-112" value="depositPaid(boolean)&#10;depositAmount (double)&#10;bookingDate Date&#10;dueDate Date" style="shape=partialRectangle;overflow=hidden;connectable=0;fillColor=none;top=0;left=0;bottom=0;right=0;align=left;spacingLeft=6;" parent="P_YUvC5BS9WEQk-tJ5x4-110" vertex="1"><mxGeometry x="30" width="220" height="90" as="geometry"/></mxCell><mxCell id="P_YUvC5BS9WEQk-tJ5x4-113" value="" style="shape=partialRectangle;collapsible=0;dropTarget=0;pointerEvents=0;fillColor=none;points=[[0,0.5],[1,0.5]];portConstraint=eastwest;top=0;left=0;right=0;bottom=0;" parent="P_YUvC5BS9WEQk-tJ5x4-106" vertex="1"><mxGeometry y="150" width="250" height="30" as="geometry"/></mxCell><mxCell id="P_YUvC5BS9WEQk-tJ5x4-114" value="" style="shape=partialRectangle;overflow=hidden;connectable=0;fillColor=none;top=0;left=0;bottom=0;right=0;" parent="P_YUvC5BS9WEQk-tJ5x4-113" vertex="1"><mxGeometry width="30" height="30" as="geometry"/></mxCell><mxCell id="P_YUvC5BS9WEQk-tJ5x4-115" value="" style="shape=partialRectangle;overflow=hidden;connectable=0;fillColor=none;top=0;left=0;bottom=0;right=0;align=left;spacingLeft=6;" parent="P_YUvC5BS9WEQk-tJ5x4-113" vertex="1"><mxGeometry x="30" width="220" height="30" as="geometry"/></mxCell><mxCell id="P_YUvC5BS9WEQk-tJ5x4-116" value="remainingAmount" style="shape=table;startSize=30;container=1;collapsible=1;childLayout=tableLayout;fixedRows=1;rowLines=0;fontStyle=1;align=center;resizeLast=1;" parent="1" vertex="1"><mxGeometry x="1230" y="540" width="250" height="190" as="geometry"/></mxCell><mxCell id="P_YUvC5BS9WEQk-tJ5x4-117" value="" style="shape=partialRectangle;collapsible=0;dropTarget=0;pointerEvents=0;fillColor=none;points=[[0,0.5],[1,0.5]];portConstraint=eastwest;top=0;left=0;right=0;bottom=1;" parent="P_YUvC5BS9WEQk-tJ5x4-116" vertex="1"><mxGeometry y="30" width="250" height="30" as="geometry"/></mxCell><mxCell id="P_YUvC5BS9WEQk-tJ5x4-118" value="PK" style="shape=partialRectangle;overflow=hidden;connectable=0;fillColor=none;top=0;left=0;bottom=0;right=0;fontStyle=1;" parent="P_YUvC5BS9WEQk-tJ5x4-117" vertex="1"><mxGeometry width="30" height="30" as="geometry"/></mxCell><mxCell id="P_YUvC5BS9WEQk-tJ5x4-119" value="remainingID (int)" style="shape=partialRectangle;overflow=hidden;connectable=0;fillColor=none;top=0;left=0;bottom=0;right=0;align=left;spacingLeft=6;fontStyle=5;" parent="P_YUvC5BS9WEQk-tJ5x4-117" vertex="1"><mxGeometry x="30" width="220" height="30" as="geometry"/></mxCell><mxCell id="P_YUvC5BS9WEQk-tJ5x4-120" value="" style="shape=partialRectangle;collapsible=0;dropTarget=0;pointerEvents=0;fillColor=none;points=[[0,0.5],[1,0.5]];portConstraint=eastwest;top=0;left=0;right=0;bottom=0;" parent="P_YUvC5BS9WEQk-tJ5x4-116" vertex="1"><mxGeometry y="60" width="250" height="90" as="geometry"/></mxCell><mxCell id="P_YUvC5BS9WEQk-tJ5x4-121" value="FK1&#10;&#10;FK2&#10;" style="shape=partialRectangle;overflow=hidden;connectable=0;fillColor=none;top=0;left=0;bottom=0;right=0;" parent="P_YUvC5BS9WEQk-tJ5x4-120" vertex="1"><mxGeometry width="30" height="90" as="geometry"/></mxCell><mxCell id="P_YUvC5BS9WEQk-tJ5x4-122" value="depositPaid (boolean)&#10;remainingAmount (double)&#10;rentalStartDate (Date) &#10;remainingDueDate (Date)" style="shape=partialRectangle;overflow=hidden;connectable=0;fillColor=none;top=0;left=0;bottom=0;right=0;align=left;spacingLeft=6;" parent="P_YUvC5BS9WEQk-tJ5x4-120" vertex="1"><mxGeometry x="30" width="220" height="90" as="geometry"/></mxCell><mxCell id="P_YUvC5BS9WEQk-tJ5x4-123" value="" style="shape=partialRectangle;collapsible=0;dropTarget=0;pointerEvents=0;fillColor=none;points=[[0,0.5],[1,0.5]];portConstraint=eastwest;top=0;left=0;right=0;bottom=0;" parent="P_YUvC5BS9WEQk-tJ5x4-116" vertex="1"><mxGeometry y="150" width="250" height="30" as="geometry"/></mxCell><mxCell id="P_YUvC5BS9WEQk-tJ5x4-124" value="" style="shape=partialRectangle;overflow=hidden;connectable=0;fillColor=none;top=0;left=0;bottom=0;right=0;" parent="P_YUvC5BS9WEQk-tJ5x4-123" vertex="1"><mxGeometry width="30" height="30" as="geometry"/></mxCell><mxCell id="P_YUvC5BS9WEQk-tJ5x4-125" value="" style="shape=partialRectangle;overflow=hidden;connectable=0;fillColor=none;top=0;left=0;bottom=0;right=0;align=left;spacingLeft=6;" parent="P_YUvC5BS9WEQk-tJ5x4-123" vertex="1"><mxGeometry x="30" width="220" height="30" as="geometry"/></mxCell><mxCell id="P_YUvC5BS9WEQk-tJ5x4-127" style="edgeStyle=none;rounded=0;orthogonalLoop=1;jettySize=auto;html=1;entryX=1;entryY=0.5;entryDx=0;entryDy=0;startArrow=classic;startFill=1;endArrow=none;endFill=0;" parent="1" source="P_YUvC5BS9WEQk-tJ5x4-120" target="P_YUvC5BS9WEQk-tJ5x4-110" edge="1"><mxGeometry relative="1" as="geometry"/></mxCell></root></mxGraphModel></diagram><diagram id="yeD6IXACktP5UXALGS6s" name="Page-2"><mxGraphModel dx="745" dy="852" grid="1" gridSize="10" guides="1" tooltips="1" connect="1" arrows="1" fold="1" page="1" pageScale="1" pageWidth="850" pageHeight="1100" math="0" shadow="0"><root><mxCell id="pAx6MIiJs9md1RZ7_73a-0"/><mxCell id="pAx6MIiJs9md1RZ7_73a-1" parent="pAx6MIiJs9md1RZ7_73a-0"/><mxCell id="yd_UDoEApeNAMP6L8CoY-0" style="edgeStyle=none;rounded=0;orthogonalLoop=1;jettySize=auto;html=1;entryX=0;entryY=0.5;entryDx=0;entryDy=0;startArrow=ERone;startFill=0;endArrow=none;endFill=0;exitX=0.817;exitY=0.963;exitDx=0;exitDy=0;exitPerimeter=0;" parent="pAx6MIiJs9md1RZ7_73a-1" source="cOnySKGzXaCLTlc3LaJJ-0" target="pAx6MIiJs9md1RZ7_73a-3" edge="1"><mxGeometry relative="1" as="geometry"/></mxCell><mxCell id="yd_UDoEApeNAMP6L8CoY-1" style="edgeStyle=none;rounded=0;orthogonalLoop=1;jettySize=auto;html=1;entryX=0;entryY=0.5;entryDx=0;entryDy=0;endArrow=ERmany;endFill=0;" parent="pAx6MIiJs9md1RZ7_73a-1" source="pAx6MIiJs9md1RZ7_73a-3" target="pAx6MIiJs9md1RZ7_73a-4" edge="1"><mxGeometry relative="1" as="geometry"/></mxCell><mxCell id="pAx6MIiJs9md1RZ7_73a-3" value="make" style="rhombus;whiteSpace=wrap;html=1;" parent="pAx6MIiJs9md1RZ7_73a-1" vertex="1"><mxGeometry x="410" y="440" width="80" height="80" as="geometry"/></mxCell><mxCell id="TUiUpgwA9mb-X04-EVIy-0" style="edgeStyle=none;rounded=0;orthogonalLoop=1;jettySize=auto;html=1;entryX=0;entryY=0.5;entryDx=0;entryDy=0;startArrow=ERone;startFill=0;endArrow=none;endFill=0;" parent="pAx6MIiJs9md1RZ7_73a-1" source="pAx6MIiJs9md1RZ7_73a-4" target="Ef_ZK3-HvVP1Qj2Gm39t-0" edge="1"><mxGeometry relative="1" as="geometry"/></mxCell><mxCell id="cOnySKGzXaCLTlc3LaJJ-8" value="" style="edgeStyle=none;rounded=0;orthogonalLoop=1;jettySize=auto;html=1;startArrow=ERone;startFill=0;endArrow=none;endFill=0;" parent="pAx6MIiJs9md1RZ7_73a-1" source="pAx6MIiJs9md1RZ7_73a-4" target="cOnySKGzXaCLTlc3LaJJ-7" edge="1"><mxGeometry relative="1" as="geometry"/></mxCell><mxCell id="pAx6MIiJs9md1RZ7_73a-4" value="booking system" style="ellipse;whiteSpace=wrap;html=1;" parent="pAx6MIiJs9md1RZ7_73a-1" vertex="1"><mxGeometry x="580" y="440" width="120" height="80" as="geometry"/></mxCell><mxCell id="1bRgtQcLL5dLRBGIEbU9-1" value="" style="edgeStyle=none;rounded=0;orthogonalLoop=1;jettySize=auto;html=1;startArrow=none;startFill=0;endArrow=ERone;endFill=0;" parent="pAx6MIiJs9md1RZ7_73a-1" source="Ef_ZK3-HvVP1Qj2Gm39t-0" target="1bRgtQcLL5dLRBGIEbU9-0" edge="1"><mxGeometry relative="1" as="geometry"/></mxCell><mxCell id="Ef_ZK3-HvVP1Qj2Gm39t-0" value="make" style="rhombus;whiteSpace=wrap;html=1;" parent="pAx6MIiJs9md1RZ7_73a-1" vertex="1"><mxGeometry x="870" y="440" width="80" height="80" as="geometry"/></mxCell><mxCell id="cOnySKGzXaCLTlc3LaJJ-23" style="rounded=0;orthogonalLoop=1;jettySize=auto;html=1;entryX=0;entryY=0.5;entryDx=0;entryDy=0;startArrow=ERone;startFill=0;endArrow=none;endFill=0;" parent="pAx6MIiJs9md1RZ7_73a-1" source="cOnySKGzXaCLTlc3LaJJ-0" target="cOnySKGzXaCLTlc3LaJJ-14" edge="1"><mxGeometry relative="1" as="geometry"/></mxCell><mxCell id="cOnySKGzXaCLTlc3LaJJ-0" value="client" style="ellipse;whiteSpace=wrap;html=1;" parent="pAx6MIiJs9md1RZ7_73a-1" vertex="1"><mxGeometry x="260" y="290" width="120" height="80" as="geometry"/></mxCell><mxCell id="cOnySKGzXaCLTlc3LaJJ-2" value="camper" style="ellipse;whiteSpace=wrap;html=1;" parent="pAx6MIiJs9md1RZ7_73a-1" vertex="1"><mxGeometry x="580" y="730" width="120" height="80" as="geometry"/></mxCell><mxCell id="cOnySKGzXaCLTlc3LaJJ-9" value="" style="edgeStyle=none;rounded=0;orthogonalLoop=1;jettySize=auto;html=1;endArrow=ERmany;endFill=0;" parent="pAx6MIiJs9md1RZ7_73a-1" source="cOnySKGzXaCLTlc3LaJJ-7" target="cOnySKGzXaCLTlc3LaJJ-2" edge="1"><mxGeometry relative="1" as="geometry"/></mxCell><mxCell id="cOnySKGzXaCLTlc3LaJJ-7" value="reserve" style="rhombus;whiteSpace=wrap;html=1;" parent="pAx6MIiJs9md1RZ7_73a-1" vertex="1"><mxGeometry x="600" y="590" width="80" height="80" as="geometry"/></mxCell><mxCell id="cOnySKGzXaCLTlc3LaJJ-10" value="remianing rental payment" style="ellipse;whiteSpace=wrap;html=1;" parent="pAx6MIiJs9md1RZ7_73a-1" vertex="1"><mxGeometry x="1370" y="170" width="120" height="80" as="geometry"/></mxCell><mxCell id="cOnySKGzXaCLTlc3LaJJ-17" value="" style="edgeStyle=none;rounded=0;orthogonalLoop=1;jettySize=auto;html=1;endArrow=ERmany;endFill=0;" parent="pAx6MIiJs9md1RZ7_73a-1" source="cOnySKGzXaCLTlc3LaJJ-14" target="cOnySKGzXaCLTlc3LaJJ-16" edge="1"><mxGeometry relative="1" as="geometry"/></mxCell><mxCell id="cOnySKGzXaCLTlc3LaJJ-14" value="has" style="rhombus;whiteSpace=wrap;html=1;" parent="pAx6MIiJs9md1RZ7_73a-1" vertex="1"><mxGeometry x="460" y="140" width="80" height="80" as="geometry"/></mxCell><mxCell id="cOnySKGzXaCLTlc3LaJJ-16" value="insurance" style="ellipse;whiteSpace=wrap;html=1;" parent="pAx6MIiJs9md1RZ7_73a-1" vertex="1"><mxGeometry x="670" y="140" width="120" height="80" as="geometry"/></mxCell><mxCell id="cOnySKGzXaCLTlc3LaJJ-31" value="" style="edgeStyle=none;rounded=0;orthogonalLoop=1;jettySize=auto;html=1;endArrow=ERone;endFill=0;" parent="pAx6MIiJs9md1RZ7_73a-1" source="cOnySKGzXaCLTlc3LaJJ-28" target="cOnySKGzXaCLTlc3LaJJ-30" edge="1"><mxGeometry relative="1" as="geometry"/></mxCell><mxCell id="cOnySKGzXaCLTlc3LaJJ-28" value="transfer" style="rhombus;whiteSpace=wrap;html=1;" parent="pAx6MIiJs9md1RZ7_73a-1" vertex="1"><mxGeometry x="1120" y="550" width="80" height="80" as="geometry"/></mxCell><mxCell id="cOnySKGzXaCLTlc3LaJJ-30" value="bank" style="ellipse;whiteSpace=wrap;html=1;" parent="pAx6MIiJs9md1RZ7_73a-1" vertex="1"><mxGeometry x="1100" y="690" width="120" height="80" as="geometry"/></mxCell><mxCell id="cOnySKGzXaCLTlc3LaJJ-34" style="edgeStyle=none;rounded=0;orthogonalLoop=1;jettySize=auto;html=1;entryX=1;entryY=0.5;entryDx=0;entryDy=0;endArrow=ERone;endFill=0;" parent="pAx6MIiJs9md1RZ7_73a-1" source="cOnySKGzXaCLTlc3LaJJ-32" target="cOnySKGzXaCLTlc3LaJJ-16" edge="1"><mxGeometry relative="1" as="geometry"/></mxCell><mxCell id="cOnySKGzXaCLTlc3LaJJ-32" value="include" style="rhombus;whiteSpace=wrap;html=1;" parent="pAx6MIiJs9md1RZ7_73a-1" vertex="1"><mxGeometry x="940" y="140" width="80" height="80" as="geometry"/></mxCell><mxCell id="1bRgtQcLL5dLRBGIEbU9-3" value="" style="edgeStyle=none;rounded=0;orthogonalLoop=1;jettySize=auto;html=1;startArrow=ERone;startFill=0;endArrow=none;endFill=0;" parent="pAx6MIiJs9md1RZ7_73a-1" source="1bRgtQcLL5dLRBGIEbU9-0" target="1bRgtQcLL5dLRBGIEbU9-2" edge="1"><mxGeometry relative="1" as="geometry"/></mxCell><mxCell id="1bRgtQcLL5dLRBGIEbU9-5" style="edgeStyle=none;rounded=0;orthogonalLoop=1;jettySize=auto;html=1;entryX=0.653;entryY=0.86;entryDx=0;entryDy=0;entryPerimeter=0;startArrow=ERone;startFill=0;endArrow=none;endFill=0;" parent="pAx6MIiJs9md1RZ7_73a-1" source="1bRgtQcLL5dLRBGIEbU9-0" target="cOnySKGzXaCLTlc3LaJJ-32" edge="1"><mxGeometry relative="1" as="geometry"/></mxCell><mxCell id="1bRgtQcLL5dLRBGIEbU9-8" value="" style="edgeStyle=none;rounded=0;orthogonalLoop=1;jettySize=auto;html=1;startArrow=ERone;startFill=0;endArrow=none;endFill=0;" parent="pAx6MIiJs9md1RZ7_73a-1" source="1bRgtQcLL5dLRBGIEbU9-0" target="1bRgtQcLL5dLRBGIEbU9-7" edge="1"><mxGeometry relative="1" as="geometry"/></mxCell><mxCell id="1bRgtQcLL5dLRBGIEbU9-12" value="" style="edgeStyle=none;rounded=0;orthogonalLoop=1;jettySize=auto;html=1;startArrow=ERone;startFill=0;endArrow=none;endFill=0;" parent="pAx6MIiJs9md1RZ7_73a-1" source="1bRgtQcLL5dLRBGIEbU9-0" target="1bRgtQcLL5dLRBGIEbU9-11" edge="1"><mxGeometry relative="1" as="geometry"/></mxCell><mxCell id="s3YhKiOlecFoSWtnPtgo-1" style="edgeStyle=none;rounded=0;orthogonalLoop=1;jettySize=auto;html=1;endArrow=none;endFill=0;startArrow=ERone;startFill=0;" edge="1" parent="pAx6MIiJs9md1RZ7_73a-1" source="1bRgtQcLL5dLRBGIEbU9-0" target="cOnySKGzXaCLTlc3LaJJ-28"><mxGeometry relative="1" as="geometry"/></mxCell><mxCell id="1bRgtQcLL5dLRBGIEbU9-0" value="payment system" style="ellipse;whiteSpace=wrap;html=1;" parent="pAx6MIiJs9md1RZ7_73a-1" vertex="1"><mxGeometry x="1100" y="290" width="120" height="80" as="geometry"/></mxCell><mxCell id="1bRgtQcLL5dLRBGIEbU9-4" value="" style="edgeStyle=none;rounded=0;orthogonalLoop=1;jettySize=auto;html=1;endArrow=ERone;endFill=0;" parent="pAx6MIiJs9md1RZ7_73a-1" source="1bRgtQcLL5dLRBGIEbU9-2" target="cOnySKGzXaCLTlc3LaJJ-10" edge="1"><mxGeometry relative="1" as="geometry"/></mxCell><mxCell id="1bRgtQcLL5dLRBGIEbU9-2" value="make" style="rhombus;whiteSpace=wrap;html=1;" parent="pAx6MIiJs9md1RZ7_73a-1" vertex="1"><mxGeometry x="1220" y="170" width="80" height="80" as="geometry"/></mxCell><mxCell id="1bRgtQcLL5dLRBGIEbU9-10" value="" style="edgeStyle=none;rounded=0;orthogonalLoop=1;jettySize=auto;html=1;endArrow=ERone;endFill=0;" parent="pAx6MIiJs9md1RZ7_73a-1" source="1bRgtQcLL5dLRBGIEbU9-7" target="1bRgtQcLL5dLRBGIEbU9-9" edge="1"><mxGeometry relative="1" as="geometry"/></mxCell><mxCell id="1bRgtQcLL5dLRBGIEbU9-7" value="make" style="rhombus;whiteSpace=wrap;html=1;" parent="pAx6MIiJs9md1RZ7_73a-1" vertex="1"><mxGeometry x="1220" y="460" width="80" height="80" as="geometry"/></mxCell><mxCell id="1bRgtQcLL5dLRBGIEbU9-9" value="deposit" style="ellipse;whiteSpace=wrap;html=1;" parent="pAx6MIiJs9md1RZ7_73a-1" vertex="1"><mxGeometry x="1370" y="460" width="120" height="80" as="geometry"/></mxCell><mxCell id="1bRgtQcLL5dLRBGIEbU9-14" value="" style="edgeStyle=none;rounded=0;orthogonalLoop=1;jettySize=auto;html=1;startArrow=none;startFill=0;endArrow=ERmany;endFill=0;" parent="pAx6MIiJs9md1RZ7_73a-1" source="1bRgtQcLL5dLRBGIEbU9-11" target="1bRgtQcLL5dLRBGIEbU9-13" edge="1"><mxGeometry relative="1" as="geometry"/></mxCell><mxCell id="1bRgtQcLL5dLRBGIEbU9-11" value="make" style="rhombus;whiteSpace=wrap;html=1;" parent="pAx6MIiJs9md1RZ7_73a-1" vertex="1"><mxGeometry x="860" y="290" width="80" height="80" as="geometry"/></mxCell><mxCell id="1bRgtQcLL5dLRBGIEbU9-31" value="" style="edgeStyle=none;rounded=0;orthogonalLoop=1;jettySize=auto;html=1;startArrow=ERmany;startFill=0;endArrow=none;endFill=0;" parent="pAx6MIiJs9md1RZ7_73a-1" source="1bRgtQcLL5dLRBGIEbU9-13" target="1bRgtQcLL5dLRBGIEbU9-30" edge="1"><mxGeometry relative="1" as="geometry"/></mxCell><mxCell id="1bRgtQcLL5dLRBGIEbU9-13" value="invoice" style="ellipse;whiteSpace=wrap;html=1;" parent="pAx6MIiJs9md1RZ7_73a-1" vertex="1"><mxGeometry x="630" y="290" width="120" height="80" as="geometry"/></mxCell><mxCell id="1bRgtQcLL5dLRBGIEbU9-18" value="" style="edgeStyle=none;rounded=0;orthogonalLoop=1;jettySize=auto;html=1;startArrow=none;startFill=0;endArrow=ERmany;endFill=0;" parent="pAx6MIiJs9md1RZ7_73a-1" source="1bRgtQcLL5dLRBGIEbU9-15" target="1bRgtQcLL5dLRBGIEbU9-17" edge="1"><mxGeometry relative="1" as="geometry"/></mxCell><mxCell id="1bRgtQcLL5dLRBGIEbU9-28" style="rounded=0;orthogonalLoop=1;jettySize=auto;html=1;startArrow=none;startFill=0;endArrow=ERone;endFill=0;" parent="pAx6MIiJs9md1RZ7_73a-1" source="1bRgtQcLL5dLRBGIEbU9-15" target="pAx6MIiJs9md1RZ7_73a-4" edge="1"><mxGeometry relative="1" as="geometry"/></mxCell><mxCell id="1bRgtQcLL5dLRBGIEbU9-15" value="send" style="rhombus;whiteSpace=wrap;html=1;" parent="pAx6MIiJs9md1RZ7_73a-1" vertex="1"><mxGeometry x="435" y="560" width="80" height="80" as="geometry"/></mxCell><mxCell id="1bRgtQcLL5dLRBGIEbU9-34" value="" style="edgeStyle=none;rounded=0;orthogonalLoop=1;jettySize=auto;html=1;startArrow=ERmany;startFill=0;endArrow=none;endFill=0;" parent="pAx6MIiJs9md1RZ7_73a-1" source="1bRgtQcLL5dLRBGIEbU9-17" target="1bRgtQcLL5dLRBGIEbU9-33" edge="1"><mxGeometry relative="1" as="geometry"/></mxCell><mxCell id="1bRgtQcLL5dLRBGIEbU9-17" value="mail system&amp;nbsp;" style="ellipse;whiteSpace=wrap;html=1;" parent="pAx6MIiJs9md1RZ7_73a-1" vertex="1"><mxGeometry x="260" y="560" width="120" height="80" as="geometry"/></mxCell><mxCell id="1bRgtQcLL5dLRBGIEbU9-32" style="edgeStyle=none;rounded=0;orthogonalLoop=1;jettySize=auto;html=1;startArrow=none;startFill=0;endArrow=ERone;endFill=0;" parent="pAx6MIiJs9md1RZ7_73a-1" source="1bRgtQcLL5dLRBGIEbU9-30" target="cOnySKGzXaCLTlc3LaJJ-0" edge="1"><mxGeometry relative="1" as="geometry"/></mxCell><mxCell id="1bRgtQcLL5dLRBGIEbU9-30" value="get" style="rhombus;whiteSpace=wrap;html=1;" parent="pAx6MIiJs9md1RZ7_73a-1" vertex="1"><mxGeometry x="460" y="290" width="80" height="80" as="geometry"/></mxCell><mxCell id="1bRgtQcLL5dLRBGIEbU9-35" style="edgeStyle=none;rounded=0;orthogonalLoop=1;jettySize=auto;html=1;entryX=0.5;entryY=1;entryDx=0;entryDy=0;startArrow=none;startFill=0;endArrow=ERone;endFill=0;" parent="pAx6MIiJs9md1RZ7_73a-1" source="1bRgtQcLL5dLRBGIEbU9-33" target="cOnySKGzXaCLTlc3LaJJ-0" edge="1"><mxGeometry relative="1" as="geometry"/></mxCell><mxCell id="1bRgtQcLL5dLRBGIEbU9-33" value="receive" style="rhombus;whiteSpace=wrap;html=1;" parent="pAx6MIiJs9md1RZ7_73a-1" vertex="1"><mxGeometry x="280" y="440" width="80" height="60" as="geometry"/></mxCell></root></mxGraphModel></diagram><diagram id="DrjYePMRm4h8LREsG_m5" name="第 3 页"><mxGraphModel dx="1863" dy="2130" grid="1" gridSize="10" guides="1" tooltips="1" connect="1" arrows="1" fold="1" page="1" pageScale="1" pageWidth="827" pageHeight="1169" math="0" shadow="0"><root><mxCell id="0rRHkcyi7YOneTRV0r-H-0"/><mxCell id="0rRHkcyi7YOneTRV0r-H-1" parent="0rRHkcyi7YOneTRV0r-H-0"/></root></mxGraphModel></diagram><diagram id="od34jDna_N_LQJp9NA9K" name="第 4 页"><mxGraphModel dx="1242" dy="1420" grid="1" gridSize="10" guides="1" tooltips="1" connect="1" arrows="1" fold="1" page="1" pageScale="1" pageWidth="827" pageHeight="1169" math="0" shadow="0"><root><mxCell id="SWT0Xp4Yjq62yS5VoYMx-0"/><mxCell id="SWT0Xp4Yjq62yS5VoYMx-1" parent="SWT0Xp4Yjq62yS5VoYMx-0"/></root></mxGraphModel></diagram></mxfile>